<svg width="100" height="100" viewBox="0 0 100 100" fill="none" xmlns="http://www.w3.org/2000/svg">
<g clip-path="url(#clip0_111_2)">
<path d="M50 67C45.5802 66.871 41.3846 65.0233 38.3039 61.8493C35.2232 58.6752 33.5 54.4247 33.5 50C33.5 45.5753 35.2232 41.3248 38.3039 38.1507C41.3846 34.9767 45.5802 33.129 50 33" fill="#3276BC"/>
<path d="M26.5 50.0018C26.5009 44.183 28.6605 38.5714 32.5611 34.2527C36.4616 29.9339 41.8257 27.2152 47.6156 26.6224C53.4054 26.0296 59.2094 27.6049 63.9046 31.0435C68.5997 34.4822 71.8522 39.5397 73.0328 45.2375H71.2718C70.083 39.9347 66.9531 35.2684 62.4975 32.1558C58.0418 29.0432 52.5827 27.7095 47.1934 28.4169C41.804 29.1244 36.8743 31.8217 33.3734 35.9788C29.8724 40.1358 28.0535 45.4518 28.2741 50.8817C28.4948 56.3115 30.7391 61.4624 34.5658 65.3218C38.3925 69.1812 43.5248 71.4699 48.9538 71.7379C54.3828 72.0059 59.7157 70.2339 63.9041 66.7702C68.0925 63.3065 70.8335 58.4017 71.5881 53.0199H58.5138C58.1344 53.0285 57.7571 52.9619 57.4036 52.824C57.0501 52.6861 56.7274 52.4796 56.4541 52.2164C56.1808 51.9532 55.9624 51.6385 55.8113 51.2905C55.6603 50.9425 55.5796 50.568 55.574 50.1887V44.6626H57.2991V50.2102C57.314 50.5178 57.4502 50.8069 57.6778 51.0143C57.9055 51.2218 58.2061 51.3305 58.5138 51.3169H73.5C72.7812 63.6121 62.1867 73.5 50.0108 73.5C43.7783 73.4943 37.8027 71.017 33.395 66.6117C28.9873 62.2064 26.5076 56.2328 26.5 50.0018Z" fill="#26879E"/>
<path d="M50.0555 73.9999C45.512 74.0114 41.0586 72.7323 37.2133 70.3116C33.3681 67.8908 30.289 64.4278 28.3342 60.3255C26.3795 56.2231 25.6294 51.6499 26.1713 47.1378C26.7131 42.6258 28.5246 38.3604 31.395 34.8377C34.2655 31.315 38.0769 28.6798 42.3859 27.2387C46.6949 25.7976 51.3245 25.6098 55.7361 26.6971C60.1476 27.7844 64.1599 30.1021 67.3062 33.3807C70.4524 36.6593 72.6034 40.7639 73.5088 45.2173L73.5883 45.6074H71.1613L71.1108 45.3545C70.0764 40.5483 67.4179 36.2454 63.5829 33.1702C59.7479 30.095 54.9707 28.4354 50.0555 28.4707C47.1895 28.4183 44.3417 28.9376 41.6786 29.9983C39.0154 31.0591 36.5903 32.64 34.5449 34.6487C32.4995 36.6575 30.8748 39.0537 29.7657 41.6976C28.6567 44.3414 28.0854 47.1798 28.0854 50.0469C28.0854 52.914 28.6567 55.7524 29.7657 58.3962C30.8748 61.04 32.4995 63.4363 34.5449 65.445C36.5903 67.4538 39.0154 69.0347 41.6786 70.0954C44.3417 71.1562 47.1895 71.6755 50.0555 71.623C55.2018 71.6648 60.1905 69.8479 64.1049 66.506C68.0193 63.1641 70.5967 58.5217 71.3636 53.4316H58.6004C58.1772 53.4421 57.7561 53.3686 57.3615 53.2152C56.9669 53.0618 56.6066 52.8316 56.3016 52.5379C55.9966 52.2443 55.7529 51.893 55.5846 51.5045C55.4163 51.1159 55.3267 50.6979 55.3211 50.2745V44.3575H57.7047V50.2239C57.7053 50.3378 57.7295 50.4503 57.7757 50.5544C57.822 50.6585 57.8894 50.7519 57.9735 50.8286C58.0577 50.9053 58.1569 50.9637 58.2648 51.0002C58.3727 51.0366 58.487 51.0503 58.6004 51.0403H74V51.387C73.2271 63.8566 62.4936 73.9999 50.0555 73.9999ZM50.0555 26.7441C43.8755 26.7441 37.9487 29.1996 33.5788 33.5704C29.2089 37.9412 26.7539 43.8692 26.7539 50.0505C26.7539 56.2317 29.2089 62.1598 33.5788 66.5306C37.9487 70.9014 43.8755 73.3569 50.0555 73.3569C62.0386 73.3569 72.4037 63.6688 73.3138 51.6832H58.6004C58.2612 51.7024 57.926 51.6014 57.6539 51.3979C57.3818 51.1944 57.1901 50.9015 57.1125 50.5707H57.0547V45.0005H55.9712V50.26C55.9778 50.5984 56.0511 50.9322 56.1868 51.2422C56.3226 51.5522 56.5183 51.8323 56.7625 52.0666C57.0068 52.3008 57.2949 52.4845 57.6102 52.6072C57.9256 52.7299 58.2621 52.7891 58.6004 52.7814H72.1075L72.057 53.1498C71.2859 58.6371 68.4943 63.6387 64.229 67.1749C59.9638 70.7112 54.5322 72.5272 48.9982 72.2674C43.4643 72.0076 38.2267 69.6905 34.3114 65.7702C30.3961 61.8499 28.0853 56.6087 27.8315 51.0733C27.5777 45.5379 29.3993 40.1072 32.9395 35.8449C36.4796 31.5826 41.4832 28.7959 46.9702 28.0306C52.4571 27.2653 58.0321 28.5765 62.603 31.7075C67.1739 34.8385 70.4114 39.5635 71.6814 44.9572H72.7937C71.6833 39.7651 68.8135 35.1162 64.67 31.7973C60.5265 28.4783 55.3637 26.6932 50.0555 26.7441Z" fill="#26879E"/>
<path fill-rule="evenodd" clip-rule="evenodd" d="M20.2887 37.6926C19.9233 38.5751 19.3044 39.3295 18.5103 39.8602C17.7162 40.3908 16.7825 40.6741 15.8274 40.6739C14.8722 40.6738 13.9386 40.3904 13.1446 39.8596C12.3506 39.3287 11.7319 38.5742 11.3667 37.6916C11.0016 36.809 10.9064 35.8379 11.0933 34.9012C11.2802 33.9645 11.7407 33.1043 12.4166 32.4294C13.0925 31.7545 13.9533 31.2953 14.8903 31.1098C15.8272 30.9243 16.7981 31.0209 17.6802 31.3873C18.2658 31.6296 18.7979 31.985 19.246 32.4331C19.6942 32.8813 20.0495 33.4134 20.2918 33.999C20.5341 34.5847 20.6585 35.2124 20.658 35.8461C20.6575 36.4799 20.5319 37.1074 20.2887 37.6926ZM37.6979 20.29C36.816 20.6558 35.8455 20.7519 34.909 20.5662C33.9725 20.3805 33.1121 19.9212 32.4366 19.2466C31.761 18.5719 31.3007 17.7121 31.1138 16.7758C30.9268 15.8395 31.0216 14.8688 31.3863 13.9865C31.7509 13.1041 32.3689 12.3496 33.1623 11.8185C33.9556 11.2873 34.8886 11.0033 35.8433 11.0023C36.7981 11.0014 37.7316 11.2835 38.526 11.8131C39.3204 12.3427 39.94 13.0959 40.3064 13.9775C40.5498 14.5633 40.6754 15.1912 40.6761 15.8255C40.6767 16.4598 40.5523 17.0881 40.3101 17.6743C40.0679 18.2605 39.7125 18.7933 39.2643 19.2421C38.816 19.6909 38.2838 20.047 37.6979 20.29ZM62.3057 20.29C61.4232 19.9252 60.6686 19.3069 60.1375 18.5133C59.6064 17.7196 59.3226 16.7862 59.3219 15.8312C59.3213 14.8763 59.6039 13.9425 60.134 13.1482C60.664 12.3538 61.4178 11.7345 62.2998 11.3685C63.1819 11.0026 64.1527 10.9065 65.0894 11.0923C66.0261 11.2782 66.8866 11.7376 67.5622 12.4126C68.2377 13.0876 68.6979 13.9478 68.8846 14.8843C69.0712 15.8209 68.976 16.7918 68.6108 17.6742C68.1213 18.857 67.1822 19.797 65.9998 20.2876C64.8175 20.7781 63.4887 20.779 62.3057 20.29ZM79.7077 37.6926C79.3413 36.8105 79.2447 35.8396 79.4302 34.9026C79.6157 33.9657 80.0749 33.1048 80.7498 32.4289C81.4247 31.753 82.2849 31.2924 83.2215 31.1056C84.1582 30.9187 85.1293 31.0138 86.0118 31.379C86.8944 31.7441 87.6489 32.3628 88.1797 33.1569C88.7106 33.9509 88.994 34.8846 88.9941 35.8397C88.9942 36.7949 88.711 37.7286 88.1803 38.5228C87.6496 39.3169 86.8953 39.9358 86.0128 40.3012C84.8307 40.7906 83.5027 40.7907 82.3205 40.3016C81.1383 39.8125 80.1986 38.8741 79.7077 37.6926ZM79.7077 62.3084C80.0714 61.425 80.6891 60.6693 81.4824 60.137C82.2758 59.6048 83.2092 59.3199 84.1646 59.3184C85.12 59.3169 86.0543 59.5989 86.8493 60.1287C87.6443 60.6585 88.2643 61.4123 88.6307 62.2946C88.9972 63.1769 89.0936 64.1481 88.9078 65.0853C88.7221 66.0224 88.2625 66.8834 87.5872 67.5592C86.9119 68.235 86.0512 68.6952 85.1142 68.8817C84.1772 69.0681 83.206 68.9724 82.3235 68.6065C81.1425 68.117 80.2038 67.179 79.7135 65.9983C79.2231 64.8176 79.2211 63.4906 79.7077 62.3084ZM62.3057 79.711C63.1879 79.3439 64.1592 79.2469 65.0966 79.4321C66.034 79.6174 66.8953 80.0767 67.5715 80.7518C68.2478 81.4269 68.7084 82.2875 68.8953 83.2247C69.0821 84.1618 68.9866 85.1332 68.621 86.0161C68.2553 86.8989 67.6359 87.6534 66.8412 88.184C66.0465 88.7145 65.1123 88.9974 64.1568 88.9966C63.2012 88.9959 62.2674 88.7116 61.4736 88.1798C60.6797 87.6479 60.0615 86.8925 59.6972 86.0091C59.2101 84.8278 59.2111 83.5016 59.7001 82.321C60.189 81.1405 61.126 80.2019 62.3057 79.711ZM37.6979 79.711C38.5804 80.0764 39.3347 80.6953 39.8654 81.4894C40.396 82.2836 40.6792 83.2173 40.6791 84.1725C40.679 85.1276 40.3956 86.0613 39.8648 86.8553C39.3339 87.6494 38.5795 88.2681 37.6969 88.6333C36.8143 88.9984 35.8433 89.0936 34.9066 88.9067C33.9699 88.7198 33.1098 88.2593 32.4349 87.5834C31.76 86.9075 31.3008 86.0466 31.1153 85.1096C30.9298 84.1726 31.0264 83.2017 31.3928 82.3196C31.6351 81.734 31.9905 81.2019 32.4386 80.7537C32.8867 80.3055 33.4188 79.9502 34.0045 79.7079C34.5901 79.4656 35.2177 79.3411 35.8515 79.3417C36.4852 79.3422 37.1127 79.4677 37.6979 79.711ZM20.2887 62.3084C20.6524 63.1897 20.7467 64.159 20.5596 65.0938C20.3725 66.0286 19.9125 66.887 19.2376 67.5603C18.5628 68.2337 17.7034 68.6919 16.7682 68.8769C15.833 69.062 14.864 68.9655 13.9836 68.5999C13.1032 68.2342 12.351 67.6157 11.822 66.8225C11.2931 66.0294 11.0112 65.0972 11.0119 64.1439C11.0127 63.1905 11.2961 62.2588 11.8263 61.4665C12.3566 60.6742 13.1098 60.0569 13.9908 59.6927C14.576 59.4507 15.2032 59.3264 15.8365 59.3269C16.4698 59.3274 17.0968 59.4527 17.6817 59.6956C18.2665 59.9386 18.7978 60.2943 19.2451 60.7427C19.6924 61.191 20.047 61.723 20.2887 62.3084Z" fill="#3276BC"/>
<path fill-rule="evenodd" clip-rule="evenodd" d="M32.7732 8.40564C32.2599 8.61905 31.6948 8.67543 31.1495 8.56766C30.6041 8.45989 30.103 8.19281 29.7094 7.8002C29.3159 7.40759 29.0476 6.90708 28.9385 6.36198C28.8294 5.81688 28.8845 5.25167 29.0966 4.73784C29.3088 4.22401 29.6686 3.78464 30.1304 3.47531C30.5923 3.16597 31.1356 3.00056 31.6915 3C32.2474 2.99944 32.7909 3.16375 33.2534 3.47215C33.716 3.78056 34.0766 4.2192 34.2898 4.73259C34.5756 5.42081 34.5764 6.19435 34.292 6.88314C34.0076 7.57193 33.4613 8.11957 32.7732 8.40564ZM67.2243 8.40564C66.7117 8.19194 66.2739 7.83117 65.9662 7.36888C65.6585 6.90659 65.4946 6.3635 65.4953 5.80815C65.496 5.25281 65.6612 4.71011 65.97 4.24857C66.2788 3.78703 66.7175 3.42732 67.2306 3.21487C67.7437 3.00242 68.3082 2.94673 68.8529 3.05485C69.3976 3.16297 69.8981 3.43004 70.2911 3.82235C70.6842 4.21466 70.9522 4.71463 71.0613 5.25914C71.1705 5.80365 71.1159 6.36829 70.9044 6.88179C70.6182 7.5717 70.0698 8.11975 69.3798 8.4055C68.6897 8.69124 67.9144 8.69129 67.2243 8.40564ZM91.5909 32.7728C91.3794 32.2593 91.3248 31.6947 91.434 31.1501C91.5431 30.6056 91.8111 30.1057 92.2042 29.7134C92.5973 29.321 93.0977 29.054 93.6424 28.9459C94.1871 28.8377 94.7517 28.8934 95.2647 29.1059C95.7778 29.3183 96.2165 29.678 96.5253 30.1396C96.8341 30.6011 96.9993 31.1438 97 31.6992C97.0007 32.2545 96.8368 32.7976 96.5291 33.2599C96.2214 33.7222 95.7836 34.0829 95.271 34.2966C94.5809 34.5823 93.8056 34.5822 93.1156 34.2965C92.4255 34.0108 91.8771 33.4627 91.5909 32.7728ZM91.5909 67.2247C91.8046 66.7121 92.1653 66.2743 92.6276 65.9666C93.0899 65.6589 93.633 65.495 94.1883 65.4957C94.7437 65.4963 95.2863 65.6615 95.7479 65.9704C96.2094 66.2792 96.5691 66.7179 96.7815 67.231C96.994 67.7441 97.0497 68.3086 96.9416 68.8533C96.8335 69.398 96.5664 69.8985 96.1741 70.2916C95.7818 70.6846 95.2818 70.9527 94.7373 71.0618C94.1928 71.171 93.6282 71.1164 93.1147 70.9049C92.7725 70.764 92.4615 70.5568 92.1995 70.2954C91.9376 70.0339 91.7299 69.7233 91.5883 69.3813C91.4467 69.0394 91.374 68.6728 91.3745 68.3027C91.3749 67.9326 91.4485 67.5663 91.5909 67.2247ZM67.2243 91.5918C67.7379 91.3797 68.3029 91.3246 68.8479 91.4335C69.3928 91.5425 69.8933 91.8105 70.2859 92.2038C70.6786 92.5971 70.9458 93.098 71.0538 93.6431C71.1619 94.1882 71.1059 94.7532 70.8929 95.2665C70.68 95.7798 70.3196 96.2185 69.8574 96.527C69.3952 96.8356 68.8519 97.0002 68.2961 97C67.7404 96.9998 67.1972 96.8349 66.7352 96.5261C66.2732 96.2172 65.9131 95.7783 65.7005 95.2649C65.4171 94.5756 65.4183 93.8021 65.7039 93.1137C65.9895 92.4253 66.5362 91.8781 67.2243 91.5918ZM32.7732 91.5918C33.2858 91.8055 33.7235 92.1663 34.0312 92.6286C34.339 93.0909 34.5028 93.634 34.5022 94.1893C34.5015 94.7446 34.3363 95.2873 34.0275 95.7489C33.7186 96.2104 33.28 96.5701 32.7669 96.7826C32.2538 96.995 31.6893 97.0507 31.1446 96.9426C30.5999 96.8345 30.0994 96.5674 29.7064 96.1751C29.3133 95.7828 29.0453 95.2828 28.9361 94.7383C28.827 94.1938 28.8816 93.6292 29.093 93.1157C29.234 92.7734 29.4411 92.4624 29.7026 92.2005C29.964 91.9385 30.2746 91.7308 30.6166 91.5892C30.9585 91.4476 31.325 91.375 31.6951 91.3754C32.0652 91.3759 32.4316 91.4494 32.7732 91.5918ZM8.40658 67.2247C8.61932 67.7378 8.67523 68.3025 8.56723 68.8474C8.45923 69.3923 8.19218 69.893 7.7998 70.2862C7.40742 70.6795 6.90732 70.9476 6.36265 71.0567C5.81798 71.1659 5.25318 71.1112 4.73959 70.8995C4.226 70.6878 3.78665 70.3287 3.47703 69.8675C3.16741 69.4063 3.00142 68.8637 3.00001 68.3081C2.9986 67.7526 3.16184 67.2092 3.46912 66.7464C3.77639 66.2836 4.21391 65.9223 4.72643 65.708C5.41564 65.4219 6.19019 65.421 6.88013 65.7053C7.57006 65.9896 8.11903 66.536 8.40658 67.2247ZM8.40658 32.7728C8.19288 33.2854 7.83213 33.7232 7.36984 34.0309C6.90756 34.3386 6.36448 34.5025 5.80915 34.5018C5.25382 34.5011 4.71114 34.3359 4.2496 34.0271C3.78807 33.7183 3.42837 33.2796 3.21592 32.7665C3.00347 32.2534 2.94779 31.6889 3.05591 31.1441C3.16402 30.5994 3.43109 30.099 3.82339 29.7059C4.21569 29.3128 4.71565 29.0448 5.26015 28.9356C5.80464 28.8265 6.36927 28.8811 6.88277 29.0926C7.5714 29.3803 8.11818 29.9288 8.4037 30.6184C8.68921 31.3079 8.69025 32.0825 8.40658 32.7728Z" fill="#3276BC"/>
<path fill-rule="evenodd" clip-rule="evenodd" d="M21.4506 21.4506C20.7775 22.123 19.9202 22.5808 18.987 22.7661C18.0538 22.9513 17.0866 22.8558 16.2077 22.4915C15.3288 22.1271 14.5776 21.5104 14.0492 20.7193C13.5207 19.9282 13.2386 18.9981 13.2386 18.0467C13.2386 17.0953 13.5207 16.1652 14.0492 15.3741C14.5776 14.5829 15.3288 13.9662 16.2077 13.6019C17.0866 13.2376 18.0538 13.142 18.987 13.3273C19.9202 13.5125 20.7775 13.9703 21.4506 14.6427C22.3505 15.5471 22.8557 16.7709 22.8557 18.0467C22.8557 19.3224 22.3505 20.5463 21.4506 21.4506ZM49.9964 9.62298C49.0448 9.62298 48.1145 9.34079 47.3233 8.8121C46.532 8.28341 45.9153 7.53195 45.5512 6.65277C45.187 5.77358 45.0917 4.80615 45.2774 3.87282C45.463 2.93948 45.9213 2.08215 46.5942 1.40925C47.2671 0.736356 48.1244 0.278106 49.0577 0.0924536C49.9911 -0.0931988 50.9585 0.00208477 51.8377 0.366255C52.7169 0.730425 53.4683 1.34713 53.997 2.13837C54.5257 2.92962 54.8079 3.85987 54.8079 4.81149C54.8079 6.08758 54.301 7.3114 53.3986 8.21373C52.4963 9.11606 51.2725 9.62298 49.9964 9.62298ZM78.5494 21.4506C77.877 20.7775 77.4192 19.9202 77.2339 18.987C77.0487 18.0538 77.1442 17.0866 77.5086 16.2077C77.8729 15.3288 78.4896 14.5776 79.2807 14.0492C80.0719 13.5207 81.0019 13.2386 81.9533 13.2386C82.9047 13.2386 83.8348 13.5207 84.6259 14.0492C85.4171 14.5776 86.0338 15.3288 86.3981 16.2077C86.7624 17.0866 86.858 18.0538 86.6727 18.987C86.4875 19.9202 86.0297 20.7775 85.3573 21.4506C84.9104 21.8979 84.3798 22.2528 83.7957 22.4949C83.2117 22.737 82.5856 22.8616 81.9533 22.8616C81.3211 22.8616 80.695 22.737 80.1109 22.4949C79.5269 22.2528 78.9962 21.8979 78.5494 21.4506ZM90.377 50.0036C90.3756 49.0517 90.6566 48.1207 91.1844 47.3285C91.7122 46.5363 92.4632 45.9185 93.3423 45.5532C94.2213 45.188 95.189 45.0917 96.1228 45.2765C97.0566 45.4613 97.9146 45.919 98.5882 46.5916C99.2618 47.2642 99.7208 48.1216 99.907 49.0551C100.093 49.9886 99.9984 50.9564 99.6344 51.836C99.2705 52.7156 98.6538 53.4675 97.8624 53.9965C97.071 54.5255 96.1404 54.8079 95.1885 54.8079C93.9137 54.8079 92.6909 54.302 91.7888 53.4012C90.8867 52.5004 90.3789 51.2784 90.377 50.0036ZM78.5494 78.5566C79.2221 77.8831 80.0794 77.4243 81.0129 77.2383C81.9463 77.0522 82.9141 77.1472 83.7935 77.5112C84.673 77.8752 85.4248 78.4919 85.9537 79.2832C86.4827 80.0746 86.765 81.0051 86.765 81.9569C86.765 82.9088 86.4827 83.8392 85.9537 84.6306C85.4248 85.4219 84.673 86.0386 83.7935 86.4027C82.9141 86.7667 81.9463 86.8616 81.0129 86.6756C80.0794 86.4895 79.2221 86.0307 78.5494 85.3573C77.6482 84.4551 77.142 83.2321 77.142 81.9569C77.142 80.6817 77.6482 79.4587 78.5494 78.5566ZM49.9964 90.377C50.948 90.377 51.8783 90.6592 52.6695 91.1879C53.4608 91.7166 54.0775 92.468 54.4416 93.3472C54.8058 94.2264 54.9011 95.1938 54.7155 96.1272C54.5298 97.0605 54.0715 97.9178 53.3986 98.5907C52.7257 99.2636 51.8684 99.7219 50.9351 99.9075C50.0018 100.093 49.0343 99.9979 48.1551 99.6337C47.276 99.2696 46.5245 98.6529 45.9958 97.8616C45.4671 97.0704 45.1849 96.1401 45.1849 95.1885C45.1849 93.9124 45.6918 92.6886 46.5942 91.7863C47.4965 90.8839 48.7203 90.377 49.9964 90.377ZM21.4506 78.5566C22.123 79.2296 22.5808 80.087 22.7661 81.0202C22.9513 81.9534 22.8558 82.9206 22.4915 83.7995C22.1271 84.6784 21.5104 85.4295 20.7193 85.958C19.9282 86.4865 18.9981 86.7686 18.0467 86.7686C17.0953 86.7686 16.1652 86.4865 15.3741 85.958C14.5829 85.4295 13.9662 84.6784 13.6019 83.7995C13.2376 82.9206 13.142 81.9534 13.3273 81.0202C13.5125 80.087 13.9703 79.2296 14.6427 78.5566C15.5461 77.6549 16.7703 77.1486 18.0467 77.1486C19.323 77.1486 20.5472 77.6549 21.4506 78.5566ZM9.62298 50.0036C9.62298 50.9552 9.34079 51.8855 8.8121 52.6767C8.28341 53.468 7.53196 54.0847 6.65277 54.4488C5.77359 54.813 4.80616 54.9083 3.87282 54.7226C2.93948 54.537 2.08215 54.0787 1.40926 53.4058C0.736356 52.7329 0.278106 51.8756 0.0924536 50.9423C-0.0931988 50.0089 0.00208477 49.0415 0.366255 48.1623C0.730425 47.2831 1.34713 46.5317 2.13837 46.003C2.92962 45.4743 3.85987 45.1921 4.81149 45.1921C5.44361 45.1912 6.0697 45.315 6.65389 45.5564C7.23807 45.7979 7.76886 46.1523 8.21584 46.5992C8.66282 47.0462 9.01719 47.577 9.25866 48.1612C9.50012 48.7454 9.62393 49.3715 9.62298 50.0036Z" fill="#3276BC"/>
</g>
<defs>
<clipPath id="clip0_111_2">
<rect width="100" height="100" fill="white"/>
</clipPath>
</defs>
</svg>
